<svg width="402" height="617" viewBox="0 0 402 617" fill="none" xmlns="http://www.w3.org/2000/svg">
<path d="M549.956 177.997C541.778 178.499 532.307 180.109 523.405 182.856C514.529 185.599 506.381 188.86 499.144 191.951C498.941 192.037 498.742 192.122 498.542 192.207C492.699 194.71 486.898 197.308 479.947 200.615C479.062 201.037 478.157 201.47 477.232 201.919C469.093 205.941 458.59 210.81 445.212 220.541C434.112 228.484 424.333 239.464 417.737 249.441C411.099 259.603 405.87 268.695 402.336 279.044C396.296 298.178 394.714 310.13 393.39 316.432C388.779 340.901 384.35 366.984 378.472 402.039C377.928 405.241 377.364 408.519 376.781 411.871C376.309 414.591 375.457 416.752 374.884 416.714C374.311 416.674 374.234 414.453 374.707 411.735C375.277 408.458 375.826 405.252 376.358 402.126C376.361 402.111 376.363 402.097 376.366 402.083C382.279 366.829 386.623 341.267 391.1 317.322C392.44 310.868 394.055 298.679 400.208 278.874C403.836 268.05 409.275 258.581 416.183 248.046C423.048 237.681 433.391 226.279 444.977 218.137C458.747 208.302 469.413 203.446 477.629 199.405C478.54 198.967 479.427 198.545 480.292 198.136C480.312 198.126 480.333 198.117 480.353 198.107C487.391 194.785 492.99 192.304 498.65 189.904C498.77 189.852 498.89 189.801 499.01 189.75C506.452 186.602 514.591 183.382 523.533 180.672C532.478 177.969 541.887 176.418 549.924 175.927C553 175.73 555.534 176.134 555.498 176.705C555.5 177.277 552.982 177.8 549.956 177.997ZM-25.9097 408.643C-22.8088 402.372 -18.5385 395.334 -13.4183 388.683C-8.43074 381.93 -1.81431 376.414 4.35231 370.078C16.4877 357.698 27.2441 346.646 32.4798 341.576C37.5838 336.504 42.7311 331.56 49.85 325.908C51.4681 324.626 53.1686 323.326 54.9568 322.023C57.8998 319.881 61.1067 317.695 64.469 315.722C66.1429 314.744 67.8668 313.812 69.2326 313.266C68.8111 313.356 71.1844 312.996 73.0587 313.062C105.11 314.968 126.533 323.169 142.476 326.724C145.75 327.515 148.824 328.213 151.723 328.827C151.728 328.828 151.733 328.829 151.737 328.83C162.691 331.162 171.185 332.206 178.83 333.152C192.509 334.775 203.739 335.272 217.389 335.161C226.699 335.061 238.869 334.002 250.42 329.957C262.207 325.866 271.104 320.061 278.663 315.446C279.477 314.927 280.305 314.39 281.145 313.837C291.487 306.487 306.272 298.297 318.856 275.769C323.649 266.856 326.881 258.512 329.945 250.844C333.135 243.492 335.547 234.101 336.436 226.675C337.012 222.308 337.34 218.242 337.613 214.409C338.706 204.27 336.676 193.486 333.576 185.373C331.731 179.549 326.443 171.014 321.885 167.36C317.307 163.178 313.061 159.952 309.073 156.853C301.592 150.584 291.685 145.34 284.579 142.219C269.803 135.67 258.939 131.629 250.482 128.221C237.575 123.096 230.484 120 225.395 117.735C223.867 117.056 222.493 116.444 221.219 115.893C209.785 110.942 199.221 106.698 186.724 101.337C183.953 100.145 181.08 98.892 178.1 97.5601C168.101 93.0907 160.877 89.9141 155.077 87.3193C152.51 86.1682 150.357 85.1913 148.326 84.2469C148.288 84.2297 148.25 84.2125 148.213 84.1953C147.93 84.0635 147.651 83.932 147.374 83.8019C147.165 83.7038 146.956 83.6078 146.748 83.5093C146.663 83.4771 146.588 83.4459 146.531 83.4234C146.487 83.4056 146.452 83.3914 146.43 83.3823C146.425 83.381 146.421 83.3797 146.416 83.3783C146.003 83.2095 145.655 83.0458 145.584 83.0126C145.46 82.9544 145.351 82.9006 145.295 82.8735C145.001 82.7305 144.626 82.5402 144.379 82.4132C143.751 82.09 142.623 81.5049 140.939 80.597C139.442 79.8131 138.01 79.0746 136.245 78.1378C136.134 78.0796 136.02 78.0191 135.908 77.959C134.163 77.0277 132.164 75.9391 129.673 74.4899C127.408 73.1731 125.614 71.5242 125.638 70.8635C125.657 70.1974 127.456 70.7676 129.681 72.0788C131.989 73.4372 133.865 74.4753 135.567 75.3966C135.675 75.4548 135.783 75.513 135.892 75.5713C137.69 76.5407 139.385 77.4287 141.219 78.3966C141.837 78.7232 142.47 79.0571 143.06 79.3675C144.134 79.918 145.361 80.5215 146.853 81.2342C147.154 81.3777 147.462 81.5255 147.77 81.6709C149.76 82.6091 152.099 83.6846 154.826 84.9194C161.306 87.8508 169.196 91.3203 180.069 96.1566C182.916 97.4222 185.679 98.6229 188.402 99.7896C200.925 105.148 212.266 109.695 224.409 114.936C226.072 115.654 227.676 116.365 229.371 117.116C234.433 119.362 240.459 121.99 252.448 126.761C260.521 130.025 270.995 133.925 285.61 140.416C289.275 142.079 293.197 143.921 297.474 146.333C301.744 148.672 306.449 152.188 310.172 155.089C314.128 158.161 318.345 161.363 322.986 165.563C325.308 167.714 327.771 170.01 330.337 173.67C333.424 178.327 333.948 180.803 335.326 184.147C338.737 192.719 340.837 205.082 339.629 215.192C339.355 218.971 339.022 222.95 338.466 227.121C337.57 234.526 335.117 244.094 332.001 251.277C329.023 258.746 325.885 266.852 321.295 275.626C309.329 298.088 294.467 306.908 284.162 314.369C283.792 314.619 283.422 314.868 283.05 315.116C282.589 315.423 282.13 315.725 281.674 316.022C273.537 321.101 264.221 327.275 251.265 331.854C238.588 336.32 225.251 337.281 214.941 337.305C201.787 337.277 190.953 336.759 177.245 335.055C170.54 334.176 163.17 333.325 152.325 331.07C149.286 330.438 145.975 329.694 142.345 328.819C126.071 325.193 104.091 316.84 72.5592 315.132C68.5607 314.11 62.0509 319.707 56.2303 323.655C54.4311 324.965 52.6916 326.292 51.0141 327.625C43.9257 333.233 38.3846 338.667 32.4315 344.588C27.5665 349.31 17.1948 359.973 5.29675 372.07C-0.914753 378.388 -6.98438 383.501 -11.5641 389.669C-16.2748 395.754 -20.125 402.013 -22.8975 407.423C-23.4761 408.551 -24.0429 409.685 -24.6011 410.835C-29.3749 420.675 -33.3188 431.238 -34.6795 439.624C-35.8897 449.202 -36.4215 460.632 -36.5106 474.116C-36.5667 487.395 -36.7343 502.555 -34.684 515.189C-33.6361 521.5 -31.807 527.062 -28.9723 533.218C-25.9549 539.733 -22.6292 546.244 -19.2015 552.147C-17.496 555.082 -15.6898 557.961 -14.0254 560.317C-12.4175 562.514 -9.48428 566.556 -7.64618 569.274C-3.6948 575.087 -0.769077 578.905 2.74297 581.902C3.11306 582.221 3.48317 582.528 3.87012 582.838C11.997 589.363 25.6964 594.357 36.5188 598.917C47.5993 603.374 57.8495 606.886 66.4553 609.125C83.8794 613.682 96.3523 613.076 102.934 612.705C103.543 612.667 104.104 612.628 104.604 612.59C105.051 612.557 105.462 612.524 105.819 612.494C111.19 612.043 116.266 611.346 121.29 610.528C121.566 610.482 121.841 610.436 122.117 610.39C127.444 609.492 132.949 608.357 139.613 606.806C164.521 600.805 185.299 594.237 202.571 588.378C205.773 587.28 208.871 586.186 211.824 585.104C211.833 585.101 211.841 585.098 211.85 585.095C225 580.282 235.809 575.466 245.714 569.979C263.781 559.775 276.208 550.676 286.467 544.373C289.673 542.361 292.651 540.553 295.453 538.881C301.511 535.268 306.787 532.255 312.147 529.23C322.221 523.548 331.031 518.383 337.962 512.857C338.577 512.367 339.177 511.873 339.761 511.376C343.322 508.334 346.05 505.454 348.438 501.898C350.855 498.331 353.393 493.583 355.601 488.877C356.633 486.67 357.839 484.975 358.39 485.14C358.933 485.316 358.601 487.335 357.555 489.582C352.918 499.303 348.911 506.381 341.613 512.52C341.016 513.038 340.404 513.553 339.775 514.064C332.782 519.74 323.786 525.04 313.526 530.827C308.358 533.745 303.39 536.579 297.475 540.091C294.66 541.764 291.576 543.625 288.242 545.709C277.843 552.068 265.291 561.274 246.881 571.698C236.994 577.187 226.221 582.019 213.028 586.867C210.029 587.971 206.909 589.077 203.655 590.196C186.281 596.103 165.418 602.705 140.225 608.788C133.885 610.265 128.605 611.378 123.258 612.301C122.957 612.353 122.657 612.404 122.357 612.454C117.337 613.291 111.967 614.046 106.208 614.539C105.44 614.603 104.454 614.679 103.281 614.754C96.5957 615.143 83.7854 615.781 66.0427 611.153C57.2723 608.878 46.9249 605.331 35.7415 600.833C24.7984 596.206 11.1314 591.315 2.49342 584.384C2.38296 584.295 2.27369 584.206 2.16554 584.117C-3.6476 579.432 -7.40939 573.186 -12.4088 566.223C-15.1348 562.466 -16.7309 560.447 -18.4853 557.686C-20.1977 555.031 -21.767 552.378 -23.2142 549.825C-28.962 539.525 -33.1427 531.139 -35.3878 524.733C-38.988 514.455 -39.2063 505.162 -39.4648 497.505C-39.5003 496.044 -39.5204 494.652 -39.5291 493.321C-39.561 487.573 -39.4419 482.983 -39.3805 478.398C-39.1141 464.457 -39.004 454.79 -37.5895 443.346C-36.4661 433.694 -32.198 421.958 -27.5859 412.123C-27.579 412.108 -27.5721 412.093 -27.5651 412.078C-27.0182 410.91 -26.4605 409.756 -25.9097 408.643ZM98.6219 53.0343C96.6595 51.2473 95.4399 49.4484 95.8372 49.0406C96.2598 48.6529 98.1282 49.7905 100.076 51.5625C104.698 55.7718 109.457 59.7366 114.427 63.4859C116.505 65.0555 117.949 66.6522 117.598 67.1033C117.251 67.5565 115.216 66.6732 113.116 65.0866C108.095 61.2958 103.289 57.2876 98.6219 53.0343ZM-40.3582 414.105C-39.2546 411.535 -37.6592 409.251 -36.8731 408.958C-36.0877 408.67 -36.4201 410.44 -37.537 412.946C-38.1277 414.273 -39.0767 416.468 -40.2447 419.433C-44.8708 430.015 -50.2496 451.931 -49.8436 479.686C-49.7581 493.488 -49.9029 509.095 -45.6641 524.215C-41.1175 539.057 -32.2683 554.229 -22.567 567.613C-18.9349 572.158 -15.9004 576.648 -12.979 580.413C-6.77399 588.567 0.405727 593.727 11.0117 598.167C21.9584 602.709 35.1988 608.286 54.1147 614.442C93.6998 628.835 136.011 618.226 176.671 606.52C197.038 600.573 217.455 594.421 236.563 585.935C255.688 577.551 272.956 565.217 291.366 554.052C309.678 542.736 329.595 534.045 345.926 521.568C362.375 509.414 369.937 488.781 375.778 468.803C386.638 428.117 391.236 385.389 398.918 343.378C401.078 331.232 403.387 319.099 406.098 306.99C408.908 295.067 411.357 282.321 417.599 270.871C423.339 259.722 430.153 248.787 439.047 239.397C448.031 229.894 458.55 222.675 469.429 216.318C487.635 206.28 513.655 191.658 541.02 187.829C568.215 185.113 590.819 186.727 599.828 186.455C602.62 186.46 604.871 186.939 604.821 187.51C604.807 188.08 602.524 188.527 599.738 188.522C590.877 188.782 567.992 187.234 541.475 189.852C514.814 193.494 488.84 207.988 470.844 217.889C460.088 224.142 449.697 231.247 440.903 240.447C432.161 249.581 425.407 260.295 419.705 271.306C413.557 282.384 411.056 294.937 408.258 306.826C405.547 318.869 403.245 330.931 401.082 343.057C393.378 385.067 388.952 427.748 378.283 468.979C372.529 489.186 365.051 510.576 348 523.575C331.255 536.64 311.432 545.373 293.314 556.754C275.093 567.963 257.72 580.602 238.227 589.333C218.796 598.132 198.296 604.438 177.832 610.539C137.272 622.494 93.2733 633.628 52.5175 618.734C33.4407 612.506 20.6298 606.428 10.0395 601.373C-0.468781 596.342 -7.71427 590.581 -14.0779 582.375C-17.1149 578.54 -20.0378 574.148 -23.7207 569.509C-33.6793 556.06 -42.2214 541.243 -47.2465 526.21C-51.8844 510.937 -51.7812 495.458 -51.9523 481.744C-52.4136 454.273 -47.7437 431.876 -43.1175 420.954C-41.9188 417.809 -40.9781 415.545 -40.3582 414.105ZM44.8764 315.85C51.4124 311.079 56.8808 305.424 67.9451 302.092C78.1454 300.982 87.4469 302.706 97.3428 304.113C117.253 306.791 136.893 314.012 155.517 317.933C173.603 321.96 190.989 322.977 204.804 322.827C226.267 322.477 239.661 320.763 252.075 315.925C252.209 315.873 252.343 315.82 252.476 315.768C264.593 310.447 277.548 305.158 294.37 291.092C302.882 283.994 310.78 273.191 316.309 260.001C322.019 246.902 327.4 232.412 327.772 216.902C327.773 216.878 327.775 216.854 327.777 216.83C328.363 209.12 328.042 201.591 325.795 194.443C323.496 187.312 321.007 180.509 315.519 176.036C304.734 166.854 293.989 158.9 283.886 154.458C248.33 138.697 217.639 129.178 194.523 119.568C171.26 110.226 154.711 102.295 144.02 96.2907C125.296 85.8761 105.988 73.4793 89.2615 57.7932C72.7109 42.6273 55.5198 23.1921 58.1957 1.43447C58.8828 -3.42959 59.6597 5.01854 60.8071 12.738C60.8562 13.0223 60.9078 13.3006 60.9617 13.5738C61.5334 16.3299 62.2561 18.6214 63.6956 21.8869C65.8625 26.5712 68.0046 29.9024 70.0035 32.8846C72.3014 36.8704 84.6871 51.3424 100.653 64.7941C116.475 78.3367 136.254 89.6981 146.686 95.3579C156.851 100.973 173.014 108.024 196.117 116.622C219.119 125.516 249.56 134.227 286.036 150.415C296.381 154.998 306.885 163.541 317.501 173.337C323.092 178.221 325.892 185.9 327.989 193.163C330.136 200.535 330.505 208.652 329.884 216.322C329.879 216.407 329.874 216.491 329.869 216.576C329.424 224.267 328.626 232.072 326.466 239.505C324.186 246.981 321.235 253.709 318.391 260.412C312.836 273.794 304.557 285.325 295.755 292.629C277.917 307.473 264.531 312.931 251.843 318.249C251.716 318.297 251.592 318.342 251.466 318.388C238.77 323.064 225.661 324.529 204.864 324.893C190.62 325.051 172.891 323.976 154.502 319.83C135.805 315.839 116.412 308.739 96.9181 306.14C87.2341 304.742 77.8308 303.134 68.4644 304.104C58.9397 306.769 52.7563 312.611 46.503 317.202C44.3064 318.925 42.2031 320.094 41.7385 319.737C41.2816 319.377 42.6541 317.605 44.8764 315.85ZM37.498 305.268C42.1625 301.483 46.91 297.94 52.4016 294.527C55.5687 292.857 56.5349 290.907 65.3215 288.937C70.6366 288.041 73.6517 288.204 77.004 288.24C89.8772 288.702 100.073 290.182 112.25 292.367C135.671 297.307 154.99 303.98 174.663 306.336C194.172 308.793 216.41 309.056 233.712 305.859C242.578 304.094 249.547 300.992 259.51 295.704C268.56 291.069 276.848 286.159 284.019 280.37C291.698 273.875 297.286 266.848 302.907 254.277C305.519 248.497 309.156 239.992 310.717 235.203C312.512 229.574 313.396 223.018 313.943 215.643C313.968 215.312 313.994 214.978 314.018 214.641C314.29 210.697 314.492 208.129 314.244 205.406C314.019 202.678 313.476 199.878 312.654 197.027C311.834 194.174 310.739 191.285 309.432 188.292C309.72 188.602 308.193 186.464 306.119 184.579C301.889 180.624 296.358 176.413 291.326 172.515C287.377 169.411 283.09 167.177 278.476 164.99C244.609 150.03 213.004 140.347 189.634 130.929C166.023 121.726 148.744 113.746 137.696 107.528C116.872 95.6536 111.625 91.4677 103.478 85.8467C103.26 85.6896 103.036 85.5282 102.816 85.3693C102.801 85.3602 102.785 85.3511 102.77 85.342C102.477 85.1642 102.237 85.0094 102.114 84.9287C101.865 84.7645 101.666 84.626 101.592 84.5743C101.421 84.4553 101.276 84.3493 101.224 84.3121C101.013 84.1595 100.774 83.9836 100.622 83.8697C99.2135 82.8309 94.813 79.4217 91.4894 76.5633C88.0818 73.6463 85.744 71.4416 83.3398 69.1076C83.0962 68.8703 82.8564 68.6357 82.6165 68.4C80.4232 66.2454 78.211 64.0299 74.9001 60.6101C72.894 58.5322 71.8256 56.6758 72.4794 56.5378C73.1399 56.4061 75.2474 57.9915 77.2399 60.0334C80.7011 63.577 83.0948 65.952 85.274 68.0648C85.5115 68.2952 85.7498 68.5255 85.9915 68.7579C88.2942 70.9636 90.3522 72.8707 93.3614 75.4315C97.7575 79.0939 101.173 81.6374 104.322 83.9028C112.679 89.6944 118.705 94.4349 140.436 106.639C150.861 112.415 167.479 120.081 190.664 129.111C213.63 138.37 244.915 147.929 279.325 163.106C284.003 165.321 288.462 167.637 292.581 170.872C297.63 174.785 303.167 178.992 307.54 183.078C309.689 185.053 311.35 187.223 311.332 187.478C312.662 190.525 313.792 193.504 314.644 196.466C315.496 199.428 316.067 202.362 316.305 205.241C316.567 208.115 316.35 210.873 316.079 214.799C316.054 215.147 316.029 215.492 316.003 215.836C315.451 223.27 314.552 229.996 312.681 235.854C310.991 240.989 307.436 249.271 304.778 255.158C299.136 267.819 293.181 275.352 285.388 281.918C278.126 288.139 269.714 293.401 260.605 298.332C250.807 303.819 243.387 307.338 234.161 309.34C215.999 313.007 193.957 312.963 174.081 310.582C154.057 308.272 134.544 301.507 111.902 296.347C100.045 294.001 89.8715 292.321 77.4727 291.506C74.3149 291.364 71.2948 291.177 66.7678 291.739C65.6131 291.907 64.3074 292.087 62.2142 292.769C60.2267 293.484 60.0548 293.617 58.9314 294.132C57.0519 295.027 55.7276 295.754 54.3102 296.555C48.7793 299.719 43.9438 303.04 39.1515 306.602C32.2323 312.001 26.0555 317.555 20.3259 323.612C15.0839 329.242 10.3967 334.42 5.77488 339.472C-0.989349 346.856 -7.37854 353.951 -13.2796 359.992C-18.8712 365.461 -26.7548 373.738 -31.6001 380.836C-41.9002 395.43 -49.003 409.668 -54.1705 425.032C-56.5325 431.618 -61.6379 450.737 -62.2071 475.633C-62.4851 483.018 -62.6229 491.091 -62.2992 500.002C-61.878 510.848 -60.7841 523.926 -55.5045 536.974C-50.069 549.871 -44.1409 560.9 -35.3447 573.548C-31.0925 579.232 -28.9375 582.018 -25.6926 586.473C-19.154 595.665 -9.75278 604.326 2.28539 610.005C13.7235 615.282 26.7436 621.114 46.7123 627.873C58.914 631.939 74.3322 636.069 91.2062 636.596C108.18 637.11 125.093 634.776 141.815 631.214C174.696 623.686 205.233 614.24 227.001 606.268C248.765 598.191 260.644 591.106 268.531 586.546C270.768 585.233 272.683 584.088 274.441 583.025C279.024 580.252 282.515 578.079 287.027 575.24C303.165 564.909 316.782 557.558 331.97 548.916C339.556 544.528 347.443 539.908 355.679 533.291C363.815 527.022 372.22 516.445 377.257 506.003C378.649 503.284 380.149 501.111 380.762 501.148C381.372 501.184 380.869 503.45 379.473 506.22C374.465 516.745 365.847 527.994 357.547 534.443C349.115 541.314 341.05 546.046 333.373 550.497C317.95 559.285 304.283 566.64 287.937 577.112C283.228 580.075 279.477 582.408 274.787 585.236C273.048 586.284 271.168 587.406 269.042 588.648C261.235 593.146 249.307 600.213 227.508 608.287C205.645 616.274 175.199 625.699 142.18 633.252C125.34 636.831 108.384 639.179 91.1576 638.664C74.058 638.134 58.4338 633.954 46.1866 629.879C26.2772 623.157 13.3233 617.336 2.03728 612.185C-10.1328 606.539 -19.9989 597.9 -26.7809 588.482C-30.1734 583.91 -32.1643 581.121 -36.4852 575.509C-45.6236 562.593 -51.4712 551.57 -57.1116 538.538C-62.6382 525.264 -63.8963 511.792 -64.3438 500.818C-64.6982 491.832 -64.5734 483.731 -64.3107 476.336C-63.7254 450.829 -58.8413 432.457 -56.9177 426.693C-51.7185 410.308 -44.3434 395.447 -33.6626 380.162C-28.6878 372.796 -20.292 363.938 -14.7032 358.487C-8.73919 352.376 -2.22412 345.137 4.59643 337.692C9.17378 332.689 13.7611 327.618 18.9478 322.057C24.6668 316.028 30.7355 310.575 37.498 305.268ZM414.199 348.154C413.722 350.864 412.86 353.128 412.264 353.217C411.668 353.305 411.561 351.185 412.038 348.467C414.553 334.147 416.535 323.909 418.18 315.968C421.301 301.405 422.84 293.918 426.22 284.778C430.949 273.543 438.378 261.103 446.279 251.973C454.233 242.677 464.141 235.612 474.252 229.535C491.271 219.677 508.058 211.303 522.004 206.437C535.954 201.297 547.44 200.234 555.752 199.965C558.357 199.885 560.688 200.329 560.66 200.897C560.66 201.471 558.288 201.953 555.729 202.034C547.596 202.308 536.509 203.317 522.838 208.333C509.16 213.081 492.494 221.392 475.662 231.1C465.623 237.105 455.85 244.034 448.04 253.098C440.282 261.974 432.811 274.506 428.192 285.416C424.993 294.002 423.52 301.042 420.448 315.25C418.795 323.156 416.785 333.466 414.199 348.154Z" fill="#0E575F"/>
</svg>
